<svg width="70" height="70" viewBox="0 0 70 70" fill="none" xmlns="http://www.w3.org/2000/svg">
<path d="M69.7066 34.4603C69.4157 15.1299 53.7891 -0.292106 34.8169 0.00419918C15.8378 0.300505 0.69604 16.2163 0.986961 35.5397C1.27788 54.8701 16.9045 70.2921 35.8767 69.9958C54.8558 69.6995 70.0045 53.7907 69.7066 34.4603Z" fill="url(#paint0_linear_116_8921)"/>
<path d="M34.8512 63C19.9394 63 7.85091 50.6878 7.85091 35.5C7.85091 20.3122 19.9394 8 34.8512 8C49.7631 8 61.8516 20.3122 61.8516 35.5C61.8516 50.6878 49.7631 63 34.8512 63Z" fill="#B897FD"/>
<path d="M33.5384 22.8915L33.5685 21L37.1559 21.0503L37.1258 22.9417C40.2272 23.5676 41.7854 25.7698 41.7253 29.2237L41.7102 30.0233L37.5617 29.9639L37.5817 28.9085C37.6118 27.0901 36.8252 26.3866 35.4323 26.3683C34.0394 26.35 33.2278 27.0262 33.1977 28.8445C33.1075 34.0803 41.6752 34.455 41.5549 41.7239C41.4948 45.1778 39.8264 47.3708 36.7049 47.9099L36.6749 49.7648L33.0875 49.7146L33.1175 47.8597C29.9761 47.2338 28.4229 44.9951 28.478 41.5411L28.508 39.7958L32.6566 39.8552L32.6215 41.8563C32.5915 43.6747 33.4582 44.3417 34.8511 44.36C36.249 44.3783 37.1358 43.7387 37.1659 41.9203C37.2561 36.6845 28.6884 36.3099 28.8087 29.041C28.8688 25.6281 30.4621 23.4671 33.5384 22.8915Z" fill="#3B3B3B"/>
<defs>
<linearGradient id="paint0_linear_116_8921" x1="14.8471" y1="-5.26542e-07" x2="72.7585" y2="68.2318" gradientUnits="userSpaceOnUse">
<stop stop-color="#BA99FD"/>
<stop offset="1" stop-color="#CEC0FD"/>
</linearGradient>
</defs>
</svg>
