<svg width="71" height="70" viewBox="0 0 71 70" fill="none" xmlns="http://www.w3.org/2000/svg">
<rect x="11" y="8" width="59.1111" height="43.5556" rx="8" fill="url(#paint0_linear_116_8920)"/>
<rect y="17" width="61.0714" height="45" rx="8" fill="url(#paint1_linear_116_8920)"/>
<path d="M11.4687 25.9563C10.9368 25.3911 10.1839 25.0361 9.34637 25.0361C7.73552 25.0361 6.42969 26.342 6.42969 27.9528C6.42969 28.7903 6.78454 29.5432 7.34984 30.0752L13.6416 36.3669C14.1736 36.9321 14.9265 37.2871 15.764 37.2871C17.3748 37.2871 18.6806 35.9812 18.6806 34.3704C18.6806 33.5329 18.3257 32.78 17.7605 32.248L11.4687 25.9563Z" fill="url(#paint2_linear_116_8920)"/>
<path d="M8.91668 30.8695C10.5275 30.8695 11.8334 29.5637 11.8334 27.9528C11.8334 26.342 10.5275 25.0361 8.91668 25.0361C7.30584 25.0361 6 26.342 6 27.9528C6 29.5637 7.30584 30.8695 8.91668 30.8695Z" fill="#F8D57E"/>
<path d="M19.7187 25.9563C19.1868 25.3911 18.4339 25.0361 17.5964 25.0361C15.9855 25.0361 14.6797 26.342 14.6797 27.9528C14.6797 28.7903 15.0345 29.5432 15.5998 30.0752L21.8916 36.3669C22.4236 36.9321 23.1765 37.2871 24.0139 37.2871C25.6248 37.2871 26.9306 35.9812 26.9306 34.3704C26.9306 33.5329 26.5757 32.78 26.0105 32.248L19.7187 25.9563Z" fill="url(#paint3_linear_116_8920)"/>
<path d="M17.5964 30.8695C19.2072 30.8695 20.513 29.5637 20.513 27.9528C20.513 26.342 19.2072 25.0361 17.5964 25.0361C15.9855 25.0361 14.6797 26.342 14.6797 27.9528C14.6797 29.5637 15.9855 30.8695 17.5964 30.8695Z" fill="#F8D57E"/>
<path d="M27.9609 25.9563C27.429 25.3911 26.6761 25.0361 25.8386 25.0361C24.2277 25.0361 22.9219 26.342 22.9219 27.9528C22.9219 28.7903 23.2768 29.5432 23.842 30.0752L30.1338 36.3669C30.6658 36.9321 31.4187 37.2871 32.2561 37.2871C33.867 37.2871 35.1728 35.9812 35.1728 34.3704C35.1728 33.5329 34.8179 32.78 34.2527 32.248L27.9609 25.9563Z" fill="url(#paint4_linear_116_8920)"/>
<path d="M25.8386 30.8695C27.4494 30.8695 28.7552 29.5637 28.7552 27.9528C28.7552 26.342 27.4494 25.0361 25.8386 25.0361C24.2277 25.0361 22.9219 26.342 22.9219 27.9528C22.9219 29.5637 24.2277 30.8695 25.8386 30.8695Z" fill="#F8D57E"/>
<defs>
<linearGradient id="paint0_linear_116_8920" x1="11" y1="8" x2="70.1111" y2="51.5556" gradientUnits="userSpaceOnUse">
<stop stop-color="#A7F4CE"/>
<stop offset="1" stop-color="#7DE5AE"/>
</linearGradient>
<linearGradient id="paint1_linear_116_8920" x1="0" y1="17" x2="61.0714" y2="62" gradientUnits="userSpaceOnUse">
<stop stop-color="#3D81FF"/>
<stop offset="1" stop-color="#65E2FD"/>
</linearGradient>
<linearGradient id="paint2_linear_116_8920" x1="15.8345" y1="34.4416" x2="3.21982" y2="21.8272" gradientUnits="userSpaceOnUse">
<stop stop-color="#00A2F3" stop-opacity="0"/>
<stop offset="1" stop-color="#0075CD"/>
</linearGradient>
<linearGradient id="paint3_linear_116_8920" x1="24.084" y1="34.4413" x2="11.4696" y2="21.8269" gradientUnits="userSpaceOnUse">
<stop stop-color="#00A2F3" stop-opacity="0"/>
<stop offset="1" stop-color="#0075CD"/>
</linearGradient>
<linearGradient id="paint4_linear_116_8920" x1="32.3262" y1="34.4414" x2="19.7118" y2="21.827" gradientUnits="userSpaceOnUse">
<stop stop-color="#00A2F3" stop-opacity="0"/>
<stop offset="1" stop-color="#0075CD"/>
</linearGradient>
</defs>
</svg>
