<svg width="70" height="70" viewBox="0 0 70 70" fill="none" xmlns="http://www.w3.org/2000/svg">
<path d="M64.3376 64.1766H5.66235C2.53514 64.1766 0 61.8694 0 59.0235V14.5598C0 11.7139 2.53514 9.40674 5.66235 9.40674H64.3376C67.4648 9.40674 70 11.7139 70 14.5598V59.0235C70 61.8694 67.4648 64.1766 64.3376 64.1766Z" fill="#F8D57E"/>
<path d="M63.023 62.9576H6.96465C3.97686 62.9576 1.55469 60.7532 1.55469 58.0342V15.5537C1.55469 12.8347 3.97671 10.6304 6.96465 10.6304H63.0228C66.0106 10.6304 68.4328 12.8345 68.4328 15.5537V58.0343C68.4329 60.7534 66.0107 62.9576 63.023 62.9576Z" fill="#E1C379"/>
<path d="M66.2075 23.796L52.094 1.54965C51.1541 0.067757 49.0717 -0.440016 47.4434 0.415706L2.94531 23.796H66.2075Z" fill="#009379"/>
<path fill-rule="evenodd" clip-rule="evenodd" d="M70 24.8179V35.3488V41.6907V59.0245C70 61.8705 67.4649 64.1776 64.3376 64.1776H5.6625C2.53514 64.1776 0 61.8703 0 59.0244V41.6907V35.3488V24.8179C0 22.6883 1.89696 20.9619 4.23711 20.9619H65.7629C68.103 20.9619 70 22.6883 70 24.8179Z" fill="#FF6250"/>
<path d="M54.6648 69.9614L5.52624 64.7677C2.3762 64.4347 0 62.0067 0 59.1207V14.1826C0 15.1484 0.795171 15.9608 1.84904 16.0722L56.1059 21.807C59.256 22.1401 61.6322 24.568 61.6322 27.454V64.3145C61.6322 67.714 58.3753 70.3538 54.6648 69.9614Z" fill="#F8D57E"/>
<path d="M4.40466 21.1906C4.3635 21.1906 4.32173 21.1884 4.27982 21.1843L2.03116 20.9593C1.41011 20.8971 0.96197 20.3888 1.03033 19.8237C1.09868 19.2587 1.65769 18.8512 2.27814 18.9129L4.5268 19.1379C5.14785 19.2002 5.59599 19.7085 5.52764 20.2735C5.46394 20.8006 4.97389 21.1906 4.40466 21.1906Z" fill="#F8D57E"/>
<path d="M50.6076 66.5614C50.5602 66.5614 50.5118 66.5585 50.4634 66.5531L46.0931 66.0474C45.4735 65.9757 45.0348 65.4603 45.1137 64.8962C45.1926 64.3324 45.7588 63.9355 46.3786 64.0049L50.749 64.5106C51.3685 64.5823 51.8074 65.0977 51.7284 65.6618C51.6555 66.1816 51.1687 66.5614 50.6076 66.5614ZM54.9093 66.0519C54.4851 66.0519 54.0781 65.8335 53.8854 65.4608C53.619 64.9466 53.8613 64.3332 54.4265 64.091C55.5741 63.5989 56.4372 62.7826 56.7946 61.8513C57.0005 61.3148 57.6459 61.0318 58.2354 61.2189C58.8251 61.4063 59.1364 61.9934 58.9304 62.5301C58.366 64.0009 57.109 65.2168 55.3907 65.9534C55.2349 66.0201 55.071 66.0519 54.9093 66.0519ZM41.8671 65.55C41.8196 65.55 41.7712 65.5471 41.7228 65.5416L37.3525 65.0359C36.7329 64.9643 36.2941 64.4488 36.3731 63.8847C36.452 63.3209 37.0182 62.9239 37.6381 62.9935L42.0084 63.4992C42.628 63.5708 43.0668 64.0863 42.9878 64.6504C42.9149 65.17 42.4279 65.55 41.8671 65.55ZM33.1265 64.5384C33.079 64.5384 33.0308 64.5355 32.9823 64.53L28.6119 64.0243C27.9924 63.9527 27.5535 63.4373 27.6326 62.8732C27.7114 62.3093 28.2778 61.9104 28.8975 61.9819L33.2679 62.4876C33.8874 62.5592 34.3262 63.0747 34.2472 63.6388C34.1743 64.1584 33.6873 64.5384 33.1265 64.5384ZM24.3856 63.5268C24.3381 63.5268 24.2899 63.5239 24.2414 63.5185L19.8709 63.0126C19.2512 62.9408 18.8125 62.4255 18.8915 61.8614C18.9704 61.2975 19.5369 60.9004 20.1565 60.9702L24.527 61.476C25.1467 61.5478 25.5854 62.0631 25.5063 62.6272C25.4338 63.1471 24.9467 63.5268 24.3856 63.5268ZM15.645 62.5152C15.5976 62.5152 15.5493 62.5124 15.5008 62.5069L11.1303 62.001C10.5106 61.9292 10.0719 61.414 10.151 60.8499C10.2298 60.2859 10.7963 59.8887 11.4159 59.9586L15.7864 60.4644C16.4061 60.5362 16.8448 61.0515 16.7658 61.6156C16.6931 62.1356 16.2062 62.5152 15.645 62.5152ZM58.1163 59.2374C57.4915 59.2374 56.9852 58.7767 56.9852 58.208V54.1988C56.9852 53.6301 57.4915 53.1694 58.1163 53.1694C58.7411 53.1694 59.2474 53.6301 59.2474 54.1988V58.208C59.2475 58.7767 58.7413 59.2374 58.1163 59.2374ZM58.1163 51.219C57.4915 51.219 56.9852 50.7582 56.9852 50.1896V46.1803C56.9852 45.6117 57.4915 45.151 58.1163 45.151C58.7411 45.151 59.2474 45.6117 59.2474 46.1803V50.1896C59.2475 50.7581 58.7413 51.219 58.1163 51.219ZM58.1163 43.2004C57.4915 43.2004 56.9852 42.7397 56.9852 42.1711V38.1618C56.9852 37.5932 57.4915 37.1324 58.1163 37.1324C58.7411 37.1324 59.2474 37.5932 59.2474 38.1618V42.1711C59.2475 42.7395 58.7413 43.2004 58.1163 43.2004ZM58.1163 35.1819C57.4915 35.1819 56.9852 34.7211 56.9852 34.1525V30.1432C56.9852 29.5746 57.4915 29.1139 58.1163 29.1139C58.7411 29.1139 59.2474 29.5746 59.2474 30.1432V34.1525C59.2475 34.721 58.7413 35.1819 58.1163 35.1819ZM56.5344 27.5742C56.2551 27.5742 55.9752 27.4805 55.7566 27.292C54.9182 26.569 53.7547 26.1084 52.48 25.9948L52.4501 25.9919C51.8289 25.9311 51.3795 25.4234 51.4465 24.8582C51.5134 24.2929 52.071 23.8838 52.6922 23.945L52.7115 23.9469C54.4732 24.104 56.111 24.7616 57.3127 25.7975C57.7663 26.1885 57.7855 26.8401 57.3558 27.2529C57.1332 27.4663 56.8341 27.5742 56.5344 27.5742ZM48.1931 25.5597C48.152 25.5597 48.1102 25.5576 48.0683 25.5534L43.6892 25.1153C43.0683 25.0531 42.62 24.5447 42.6884 23.9797C42.7567 23.4146 43.3157 23.0079 43.9362 23.0689L48.3153 23.507C48.9362 23.5693 49.3845 24.0776 49.3161 24.6426C49.2526 25.1695 48.7623 25.5597 48.1931 25.5597ZM39.4351 24.6834C39.394 24.6834 39.3522 24.6812 39.3103 24.6771L34.9311 24.2389C34.3102 24.1767 33.8619 23.6684 33.9302 23.1033C33.9984 22.5381 34.5583 22.131 35.178 22.1925L39.5573 22.6307C40.1782 22.6929 40.6265 23.2012 40.5581 23.7663C40.4944 24.2933 40.0044 24.6834 39.4351 24.6834ZM30.6767 23.8071C30.6355 23.8071 30.5937 23.805 30.5518 23.8009L26.1728 23.3627C25.5519 23.3005 25.1036 22.7921 25.1719 22.2271C25.2401 21.662 25.7988 21.2549 26.4197 21.3163L30.7988 21.7544C31.4197 21.8167 31.868 22.325 31.7997 22.89C31.7361 23.4169 31.2461 23.8071 30.6767 23.8071ZM21.9184 22.9309C21.8772 22.9309 21.8354 22.9287 21.7935 22.9246L17.4145 22.4864C16.7934 22.4242 16.3453 21.9159 16.4136 21.3509C16.4818 20.7859 17.0399 20.3789 17.6614 20.44L22.0405 20.8782C22.6614 20.9404 23.1097 21.4487 23.0414 22.0138C22.978 22.5407 22.4878 22.9309 21.9184 22.9309ZM13.1601 22.0545C13.1189 22.0545 13.0771 22.0524 13.0352 22.0483L8.65616 21.6101C8.03526 21.5479 7.58697 21.0395 7.65532 20.4745C7.72368 19.9096 8.28194 19.5027 8.90314 19.5637L13.2822 20.0018C13.9033 20.0641 14.3514 20.5724 14.2831 21.1374C14.2195 21.6643 13.7293 22.0545 13.1601 22.0545Z" fill="#F8D57E"/>
<path d="M6.90051 61.5101C6.85303 61.5101 6.80496 61.5074 6.75644 61.5018L4.51214 61.2421C3.89244 61.1705 3.45362 60.6551 3.53264 60.0911C3.61136 59.5271 4.17773 59.1282 4.79743 59.1997L7.04172 59.4593C7.66142 59.531 8.10025 60.0464 8.02123 60.6104C7.94852 61.1303 7.46147 61.5101 6.90051 61.5101Z" fill="#F8D57E"/>
<path d="M48.4564 7.66926L41.217 11.2543C40.274 11.7212 39.0937 11.4042 38.5805 10.546C38.0675 9.68778 38.4158 8.61358 39.3588 8.14655L46.5983 4.56164C47.5413 4.09475 48.7217 4.4118 49.2349 5.26998C49.7479 6.12803 49.3995 7.20237 48.4564 7.66926Z" fill="white"/>
<path d="M50.3656 51.6673C53.4282 51.6673 55.9109 49.4079 55.9109 46.6208C55.9109 43.8336 53.4282 41.5742 50.3656 41.5742C47.303 41.5742 44.8203 43.8336 44.8203 46.6208C44.8203 49.4079 47.303 51.6673 50.3656 51.6673Z" fill="url(#paint0_linear_116_8943)"/>
<path d="M50.3582 50.1013C52.4718 50.1013 54.1852 48.542 54.1852 46.6185C54.1852 44.695 52.4718 43.1357 50.3582 43.1357C48.2446 43.1357 46.5312 44.695 46.5312 46.6185C46.5312 48.542 48.2446 50.1013 50.3582 50.1013Z" fill="url(#paint1_linear_116_8943)"/>
<defs>
<linearGradient id="paint0_linear_116_8943" x1="50.3644" y1="43.4536" x2="50.3644" y2="50.7513" gradientUnits="userSpaceOnUse">
<stop stop-color="#FF4C54"/>
<stop offset="1" stop-color="#BE3F45"/>
</linearGradient>
<linearGradient id="paint1_linear_116_8943" x1="50.357" y1="48.8055" x2="50.357" y2="43.7697" gradientUnits="userSpaceOnUse">
<stop stop-color="#FF4C54"/>
<stop offset="1" stop-color="#BE3F45"/>
</linearGradient>
</defs>
</svg>
